<svg width="38" height="38" viewBox="0 0 38 38" fill="none" xmlns="http://www.w3.org/2000/svg">
<rect width="38" height="38" rx="6" fill="#F1E9C9"/>
<path fill-rule="evenodd" clip-rule="evenodd" d="M10.4062 19C10.4062 18.4305 10.868 17.9688 11.4375 17.9688H26.5625C27.132 17.9688 27.5938 18.4305 27.5938 19C27.5938 19.5695 27.132 20.0312 26.5625 20.0312H11.4375C10.868 20.0312 10.4062 19.5695 10.4062 19Z" fill="#574F4D"/>
<path fill-rule="evenodd" clip-rule="evenodd" d="M19 10.4062C19.5695 10.4062 20.0312 10.868 20.0312 11.4375V26.5625C20.0312 27.132 19.5695 27.5938 19 27.5938C18.4305 27.5938 17.9688 27.132 17.9688 26.5625V11.4375C17.9688 10.868 18.4305 10.4062 19 10.4062Z" fill="#574F4D"/>
</svg>
