<svg width="17" height="17" viewBox="0 0 17 17" fill="none" xmlns="http://www.w3.org/2000/svg">
<g clip-path="url(#clip0_889_1048)">
<path fill-rule="evenodd" clip-rule="evenodd" d="M8.40462 2.07417C8.56532 1.97528 8.76801 1.97528 8.92872 2.07417L15.4287 6.07417C15.6192 6.19141 15.7087 6.42093 15.6478 6.63617C15.5868 6.85141 15.3904 7 15.1667 7H2.16667C1.94297 7 1.74649 6.85141 1.68557 6.63617C1.62465 6.42093 1.71411 6.19141 1.90462 6.07417L8.40462 2.07417ZM3.93319 6H13.4001L8.66667 3.08709L3.93319 6Z" fill="#8047F8"/>
<path fill-rule="evenodd" clip-rule="evenodd" d="M4.16663 6C4.44277 6 4.66663 6.22386 4.66663 6.5V11.5C4.66663 11.7761 4.44277 12 4.16663 12C3.89048 12 3.66663 11.7761 3.66663 11.5V6.5C3.66663 6.22386 3.89048 6 4.16663 6Z" fill="#8047F8"/>
<path fill-rule="evenodd" clip-rule="evenodd" d="M7.16663 6C7.44277 6 7.66663 6.22386 7.66663 6.5V11.5C7.66663 11.7761 7.44277 12 7.16663 12C6.89048 12 6.66663 11.7761 6.66663 11.5V6.5C6.66663 6.22386 6.89048 6 7.16663 6Z" fill="#8047F8"/>
<path fill-rule="evenodd" clip-rule="evenodd" d="M10.1666 6C10.4428 6 10.6666 6.22386 10.6666 6.5V11.5C10.6666 11.7761 10.4428 12 10.1666 12C9.89048 12 9.66663 11.7761 9.66663 11.5V6.5C9.66663 6.22386 9.89048 6 10.1666 6Z" fill="#8047F8"/>
<path fill-rule="evenodd" clip-rule="evenodd" d="M13.1666 6C13.4428 6 13.6666 6.22386 13.6666 6.5V11.5C13.6666 11.7761 13.4428 12 13.1666 12C12.8905 12 12.6666 11.7761 12.6666 11.5V6.5C12.6666 6.22386 12.8905 6 13.1666 6Z" fill="#8047F8"/>
<path fill-rule="evenodd" clip-rule="evenodd" d="M2.16663 11.5C2.16663 11.2239 2.39048 11 2.66663 11H14.6666C14.9428 11 15.1666 11.2239 15.1666 11.5C15.1666 11.7761 14.9428 12 14.6666 12H2.66663C2.39048 12 2.16663 11.7761 2.16663 11.5Z" fill="#8047F8"/>
<path fill-rule="evenodd" clip-rule="evenodd" d="M1.16663 13.5C1.16663 13.2238 1.39048 13 1.66663 13H15.6666C15.9428 13 16.1666 13.2238 16.1666 13.5C16.1666 13.7761 15.9428 14 15.6666 14H1.66663C1.39048 14 1.16663 13.7761 1.16663 13.5Z" fill="#8047F8"/>
</g>
<defs>
<clipPath id="clip0_889_1048">
<rect width="16" height="16" fill="white" transform="translate(0.666626 0.5)"/>
</clipPath>
</defs>
</svg>
