<svg width="22" height="22" viewBox="0 0 22 22" fill="none" xmlns="http://www.w3.org/2000/svg">
<path d="M6.875 4.8125V2.0625C6.875 1.88016 6.94743 1.7053 7.07636 1.57636C7.2053 1.44743 7.38016 1.375 7.5625 1.375C7.74484 1.375 7.9197 1.44743 8.04864 1.57636C8.17757 1.7053 8.25 1.88016 8.25 2.0625V4.8125C8.25 4.99484 8.17757 5.1697 8.04864 5.29864C7.9197 5.42757 7.74484 5.5 7.5625 5.5C7.38016 5.5 7.2053 5.42757 7.07636 5.29864C6.94743 5.1697 6.875 4.99484 6.875 4.8125ZM10.3125 5.5C10.4948 5.5 10.6697 5.42757 10.7986 5.29864C10.9276 5.1697 11 4.99484 11 4.8125V2.0625C11 1.88016 10.9276 1.7053 10.7986 1.57636C10.6697 1.44743 10.4948 1.375 10.3125 1.375C10.1302 1.375 9.9553 1.44743 9.82636 1.57636C9.69743 1.7053 9.625 1.88016 9.625 2.0625V4.8125C9.625 4.99484 9.69743 5.1697 9.82636 5.29864C9.9553 5.42757 10.1302 5.5 10.3125 5.5ZM13.0625 5.5C13.2448 5.5 13.4197 5.42757 13.5486 5.29864C13.6776 5.1697 13.75 4.99484 13.75 4.8125V2.0625C13.75 1.88016 13.6776 1.7053 13.5486 1.57636C13.4197 1.44743 13.2448 1.375 13.0625 1.375C12.8802 1.375 12.7053 1.44743 12.5764 1.57636C12.4474 1.7053 12.375 1.88016 12.375 2.0625V4.8125C12.375 4.99484 12.4474 5.1697 12.5764 5.29864C12.7053 5.42757 12.8802 5.5 13.0625 5.5ZM21.3125 10.3125V11C21.312 11.8742 20.9785 12.7153 20.3798 13.3523C19.7812 13.9893 18.9623 14.3743 18.0898 14.4289C17.6163 15.7533 16.8186 16.9381 15.7695 17.875H17.875C18.0573 17.875 18.2322 17.9474 18.3611 18.0764C18.4901 18.2053 18.5625 18.3802 18.5625 18.5625C18.5625 18.7448 18.4901 18.9197 18.3611 19.0486C18.2322 19.1776 18.0573 19.25 17.875 19.25H2.75C2.56766 19.25 2.3928 19.1776 2.26386 19.0486C2.13493 18.9197 2.0625 18.7448 2.0625 18.5625C2.0625 18.3802 2.13493 18.2053 2.26386 18.0764C2.3928 17.9474 2.56766 17.875 2.75 17.875H4.85547C3.97936 17.0994 3.27749 16.147 2.79609 15.0805C2.31469 14.014 2.06467 12.8576 2.0625 11.6875V7.5625C2.0625 7.38016 2.13493 7.2053 2.26386 7.07636C2.3928 6.94743 2.56766 6.875 2.75 6.875H17.875C18.7867 6.875 19.661 7.23716 20.3057 7.88182C20.9503 8.52648 21.3125 9.40082 21.3125 10.3125ZM19.9375 10.3125C19.937 9.88639 19.8046 9.47089 19.5583 9.12311C19.3121 8.77533 18.9642 8.51235 18.5625 8.37031V11.6875C18.563 12.1193 18.5286 12.5504 18.4594 12.9766C18.8859 12.8505 19.2603 12.59 19.5267 12.2338C19.7931 11.8776 19.9372 11.4448 19.9375 11V10.3125Z" fill="#574F4D"/>
</svg>
